<svg xmlns="http://www.w3.org/2000/svg" version="1.1" xmlns:xlink="http://www.w3.org/1999/xlink" xmlns:svgjs="http://svgjs.dev/svgjs" width="1440" height="560" preserveAspectRatio="none" viewBox="0 0 1440 560"><g mask="url(&quot;#SvgjsMask1000&quot;)" fill="none"><rect width="1440" height="560" x="0" y="0" fill="#0e2a47"></rect><path d="M673.96 662.25C769.61 644.13 743.26 402.61 963.7 402.08 1184.14 401.55 1395.63 513.57 1543.18 514.08" stroke="rgba(51,121,194,0.58)" stroke-width="2"></path><path d="M271.3 633.59C398.96 615.11 464.41 316.7 676.29 313.89 888.17 311.08 878.78 383.89 1081.27 383.89 1283.77 383.89 1383.51 314.15 1486.26 313.89" stroke="rgba(51,121,194,0.58)" stroke-width="2"></path><path d="M606.79 634.34C778.84 591.27 835.91 130.23 1099.54 123.92 1363.16 117.61 1464.6 257.12 1592.28 258.32" stroke="rgba(51,121,194,0.58)" stroke-width="2"></path><path d="M601.79 610.74C778.66 583.59 873.96 160.91 1157.6 159.75 1441.24 158.59 1563.66 379.59 1713.41 383.75" stroke="rgba(51,121,194,0.58)" stroke-width="2"></path><path d="M342.03 576.04C520.12 562.79 626.42 221.29 956.99 212.55 1287.55 203.81 1415.15 89.95 1571.94 89.35" stroke="rgba(51,121,194,0.58)" stroke-width="2"></path></g><defs><mask id="SvgjsMask1000"><rect width="1440" height="560" fill="#ffffff"></rect></mask></defs></svg>